<svg xmlns="http://www.w3.org/2000/svg" viewBox="0 0 48 48" fill="none">
  <!-- Background circle -->
  <circle cx="24" cy="24" r="22" fill="#1399a7" stroke="#c0855b" stroke-width="2"/>
  
  <!-- Calendar base -->
  <rect x="12" y="14" width="24" height="20" rx="2" fill="white" opacity="0.9"/>
  
  <!-- Calendar header -->
  <rect x="12" y="14" width="24" height="6" rx="2" fill="#6f5c92"/>
  
  <!-- Calendar rings -->
  <rect x="18" y="10" width="2" height="8" rx="1" fill="#1399a7"/>
  <rect x="28" y="10" width="2" height="8" rx="1" fill="#1399a7"/>
  
  <!-- Calendar grid dots -->
  <circle cx="16" cy="24" r="1.5" fill="#1399a7"/>
  <circle cx="20" cy="24" r="1.5" fill="#1399a7"/>
  <circle cx="24" cy="24" r="1.5" fill="#1399a7"/>
  <circle cx="28" cy="24" r="1.5" fill="#1399a7"/>
  <circle cx="32" cy="24" r="1.5" fill="#1399a7"/>
  
  <circle cx="16" cy="28" r="1.5" fill="#1399a7"/>
  <circle cx="20" cy="28" r="1.5" fill="#1399a7"/>
  <circle cx="24" cy="28" r="1.5" fill="#1399a7"/>
  <circle cx="28" cy="28" r="1.5" fill="#1399a7"/>
  <circle cx="32" cy="28" r="1.5" fill="#1399a7"/>
  
  <circle cx="16" cy="32" r="1.5" fill="#1399a7"/>
  <circle cx="20" cy="32" r="1.5" fill="#1399a7"/>
  <circle cx="24" cy="32" r="1.5" fill="#1399a7"/>
</svg>
