<svg xmlns="http://www.w3.org/2000/svg" viewBox="0 0 960 480" role="img" aria-label="Animated calendar and tasks">
  <defs>
    <linearGradient id="bg" x1="0" y1="0" x2="1" y2="1">
      <stop offset="0%" stop-color="#FFF7ED"/>
      <stop offset="50%" stop-color="#FFEFD6"/>
      <stop offset="100%" stop-color="#FFEDD5"/>
    </linearGradient>
    <linearGradient id="accent" x1="0" y1="0" x2="1" y2="1">
      <stop offset="0%" stop-color="#f97316"/>
      <stop offset="100%" stop-color="#fb7185"/>
    </linearGradient>
    <style>
      @keyframes float { 0% { transform: translateY(0px);} 50% { transform: translateY(-6px);} 100% { transform: translateY(0px);} }
      @keyframes blink { 0%, 100% { opacity: .2;} 50% { opacity: 1;} }
      @keyframes pulse { 0% { r: 0; opacity: .6;} 100% { r: 28; opacity: 0;} }
      .floating { animation: float 5s ease-in-out infinite; }
      .blink { animation: blink 1.8s ease-in-out infinite; }
    </style>
    <clipPath id="cardClip"><rect x="80" y="70" rx="20" ry="20" width="800" height="340"/></clipPath>
  </defs>

  <!-- Background -->
  <rect width="960" height="480" fill="url(#bg)"/>

  <!-- Decorative bubbles -->
  <g opacity="0.25">
    <circle cx="120" cy="80" r="14" fill="#f97316" class="floating" style="animation-delay: .2s"/>
    <circle cx="200" cy="130" r="8" fill="#fb7185" class="floating" style="animation-delay: .8s"/>
    <circle cx="830" cy="90" r="10" fill="#f97316" class="floating" style="animation-delay: 1.2s"/>
    <circle cx="880" cy="150" r="6" fill="#fb7185" class="floating" style="animation-delay: .5s"/>
  </g>

  <!-- Calendar card -->
  <g clip-path="url(#cardClip)">
    <rect x="80" y="70" rx="20" ry="20" width="800" height="340" fill="#ffffff"/>
    <rect x="80" y="70" rx="20" ry="20" width="800" height="80" fill="url(#accent)"/>
    <!-- Rings -->
    <g fill="#fff">
      <rect x="150" y="60" width="14" height="20" rx="6"/>
      <rect x="250" y="60" width="14" height="20" rx="6"/>
      <rect x="350" y="60" width="14" height="20" rx="6"/>
      <rect x="450" y="60" width="14" height="20" rx="6"/>
      <rect x="550" y="60" width="14" height="20" rx="6"/>
      <rect x="650" y="60" width="14" height="20" rx="6"/>
      <rect x="750" y="60" width="14" height="20" rx="6"/>
    </g>

    <!-- Grid of days -->
    <g transform="translate(120 170)">
      <defs>
        <rect id="cell" width="90" height="56" rx="10" ry="10"/>
      </defs>
      <g fill="#f8fafc" stroke="#e2e8f0">
        <use href="#cell" x="0" y="0"/>
        <use href="#cell" x="110" y="0"/>
        <use href="#cell" x="220" y="0"/>
        <use href="#cell" x="330" y="0"/>
        <use href="#cell" x="440" y="0"/>
        <use href="#cell" x="550" y="0"/>

        <use href="#cell" x="0" y="70"/>
        <use href="#cell" x="110" y="70"/>
        <use href="#cell" x="220" y="70"/>
        <use href="#cell" x="330" y="70"/>
        <use href="#cell" x="440" y="70"/>
        <use href="#cell" x="550" y="70"/>

        <use href="#cell" x="0" y="140"/>
        <use href="#cell" x="110" y="140"/>
        <use href="#cell" x="220" y="140"/>
        <use href="#cell" x="330" y="140"/>
        <use href="#cell" x="440" y="140"/>
        <use href="#cell" x="550" y="140"/>
      </g>

      <!-- Animated check marks appearing across cells -->
      <g fill="#22c55e">
        <g class="blink" style="animation-delay: .2s"><path d="M18 32 l10 10 l22 -22" stroke="#22c55e" stroke-width="6" fill="none" transform="translate(18,4)"/></g>
        <g class="blink" style="animation-delay: .6s"><path d="M18 32 l10 10 l22 -22" stroke="#22c55e" stroke-width="6" fill="none" transform="translate(128,74)"/></g>
        <g class="blink" style="animation-delay: 1s"><path d="M18 32 l10 10 l22 -22" stroke="#22c55e" stroke-width="6" fill="none" transform="translate(238,144)"/></g>
        <g class="blink" style="animation-delay: 1.4s"><path d="M18 32 l10 10 l22 -22" stroke="#22c55e" stroke-width="6" fill="none" transform="translate(458,4)"/></g>
        <g class="blink" style="animation-delay: 1.8s"><path d="M18 32 l10 10 l22 -22" stroke="#22c55e" stroke-width="6" fill="none" transform="translate(568,74)"/></g>
      </g>
    </g>
  </g>

  <!-- Soft pulse behind card -->
  <g transform="translate(480 220)">
    <circle r="0" fill="url(#accent)">
      <animate attributeName="r" values="0;260" dur="3s" repeatCount="indefinite"/>
      <animate attributeName="opacity" values=".15;0" dur="3s" repeatCount="indefinite"/>
    </circle>
  </g>
</svg>



